<svg class="logo-desktop" height="14px" version="1.1" viewBox="0 0 281 14" width="281px" xmlns="http://www.w3.org/2000/svg" xmlns:xlink="http://www.w3.org/1999/xlink"><title>The Coffee Bean &amp; Tea Leaf</title><g fill="none" fill-rule="evenodd" id="Site" stroke="none" stroke-width="1"><g fill="#111820" id="my-account-md" transform="translate(-20.000000, -25.000000)"><g id="Group-12" transform="translate(-317.000000, 0.000000)"><g id="Group-8" transform="translate(317.000000, 0.000000)"><g id="navbar-scrolled"><g id="CBTL_logoNew_TextHorizontal_black6C" transform="translate(20.000000, 25.000000)"><polyline id="Fill-1" points="6.37222527 3.15302885 6.37222527 12.7983894 3.43516187 12.7983894 3.43516187 3.15302885 0 3.15302885 0 0.647163462 9.80738714 0.647163462 9.80738714 3.15302885 6.37222527 3.15302885"></polyline><polyline id="Fill-4" points="19.6834775 12.7983894 19.6834775 7.71850962 14.9429541 7.71850962 14.9429541 12.7983894 12.0063959 12.7983894 12.0063959 0.647163462 14.9429541 0.647163462 14.9429541 5.24697115 19.6834775 5.24697115 19.6834775 0.647163462 22.6205409 0.647163462 22.6205409 12.7983894 19.6834775 12.7983894"></polyline><polyline id="Fill-5" points="25.6434834 12.7983894 25.6434834 0.647163462 33.8186634 0.647163462 33.8186634 3.11870192 28.4769867 3.11870192 28.4769867 5.41810096 33.5266747 5.41810096 33.5266747 7.77 28.4769867 7.77 28.4769867 10.2930288 34.1283332 10.2930288 34.1283332 12.7983894 25.6434834 12.7983894"></polyline><path d="M51.4753955,12.584351 C50.6858134,12.9447837 49.7749903,13.125 48.7449469,13.125 C47.8058343,13.125 46.9384559,12.970024 46.1428118,12.6615865 C45.3466625,12.3526442 44.6565991,11.9144712 44.0731268,11.3485817 C43.4891493,10.7816827 43.0309593,10.1042308 42.6985569,9.31471154 C42.3666596,8.52519231 42.2009636,7.65540865 42.2009636,6.70586538 C42.2009636,5.73310096 42.3696906,4.85170673 42.70765,4.06269231 C43.0451041,3.27266827 43.511882,2.60076923 44.1074784,2.04598558 C44.7025697,1.49069712 45.401221,1.06463942 46.2029272,0.767307692 C47.0041281,0.469975962 47.8689807,0.321057692 48.7964744,0.321057692 C49.6552648,0.321057692 50.4994054,0.473004808 51.3294011,0.775889423 C52.159902,1.07927885 52.8327896,1.5225 53.3480638,2.10605769 L51.35567,4.09701923 C51.080857,3.71942308 50.7196598,3.43875 50.273594,3.25600962 C49.8270229,3.07326923 49.368833,2.98088942 48.8995292,2.98088942 C48.3837498,2.98088942 47.9119202,3.07579327 47.482525,3.26459135 C47.0531297,3.45338942 46.6838498,3.71336538 46.3746853,4.04552885 C46.0655207,4.37769231 45.8250594,4.76891827 45.6533013,5.22122596 C45.481038,5.67302885 45.3951589,6.16824519 45.3951589,6.70586538 C45.3951589,7.25509615 45.481038,7.75838942 45.6533013,8.21574519 C45.8250594,8.67411058 46.0624897,9.06584135 46.3660973,9.39144231 C46.6691999,9.71805288 47.0324177,9.97298077 47.4562561,10.1557212 C47.8800944,10.3384615 48.3438413,10.4303365 48.8474966,10.4303365 C49.4319793,10.4303365 49.9411915,10.3157452 50.3766488,10.0865625 C50.8116009,9.85788462 51.160674,9.56055288 51.4243732,9.19456731 L53.4682945,11.116875 C52.9297824,11.7347596 52.2659879,12.2239183 51.4753955,12.584351" id="Fill-6"></path><path d="M64.9068784,6.67153846 C64.9068784,6.14552885 64.8209993,5.65283654 64.6497464,5.19548077 C64.4779883,4.738125 64.2400528,4.34538462 63.9364451,4.01978365 C63.6333426,3.69317308 63.2670938,3.43622596 62.8376985,3.24742788 C62.4083033,3.05862981 61.9359685,2.96423077 61.4206942,2.96423077 C60.9049148,2.96423077 60.4356111,3.05862981 60.0122779,3.24742788 C59.5884395,3.43622596 59.2216855,3.69317308 58.9130261,4.01978365 C58.6038615,4.34538462 58.365926,4.738125 58.20023,5.19548077 C58.0340288,5.65283654 57.9511808,6.14552885 57.9511808,6.67153846 C57.9511808,7.22076923 58.0370598,7.72709135 58.2088179,8.19050481 C58.3800708,8.65391827 58.6180063,9.05170673 58.921614,9.38336538 C59.2247165,9.71502404 59.5884395,9.97550481 60.0122779,10.1643029 C60.4356111,10.353101 60.9049148,10.4469952 61.4206942,10.4469952 C61.9359685,10.4469952 62.4052723,10.353101 62.8291106,10.1643029 C63.2524438,9.97550481 63.6191978,9.71502404 63.9283624,9.38336538 C64.237527,9.05170673 64.4779883,8.65391827 64.6497464,8.19050481 C64.8209993,7.72709135 64.9068784,7.22076923 64.9068784,6.67153846 L64.9068784,6.67153846 Z M68.0505567,6.67153846 C68.0505567,7.63269231 67.8843554,8.51055288 67.5524582,9.30612981 C67.2200558,10.1017067 66.7593399,10.7816827 66.1693004,11.3485817 C65.579766,11.9144712 64.8785888,12.3526442 64.0652637,12.6615865 C63.2524438,12.970024 62.3709206,13.125 61.4206942,13.125 C60.4699627,13.125 59.5914705,12.970024 58.7842075,12.6615865 C57.9769445,12.3526442 57.2782932,11.9144712 56.6887588,11.3485817 C56.0987192,10.7816827 55.6380034,10.1017067 55.3056009,9.30612981 C54.9737037,8.51055288 54.8080076,7.63269231 54.8080076,6.67153846 C54.8080076,5.69877404 54.9737037,4.82091346 55.3056009,4.03694712 C55.6380034,3.25298077 56.0987192,2.58663462 56.6887588,2.03740385 C57.2782932,1.48817308 57.9769445,1.06463942 58.7842075,0.767307692 C59.5914705,0.469975962 60.4699627,0.321057692 61.4206942,0.321057692 C62.3709206,0.321057692 63.2524438,0.469975962 64.0652637,0.767307692 C64.8785888,1.06463942 65.579766,1.48817308 66.1693004,2.03740385 C66.7593399,2.58663462 67.2200558,3.25298077 67.5524582,4.03694712 C67.8843554,4.82091346 68.0505567,5.69877404 68.0505567,6.67153846 L68.0505567,6.67153846 Z" id="Fill-7"></path><polyline id="Fill-8" points="73.4083988 3.15302885 73.4083988 5.65889423 78.1150758 5.65889423 78.1150758 8.07894231 73.4083988 8.07894231 73.4083988 12.7983894 70.5061922 12.7983894 70.5061922 0.647163462 78.5101194 0.647163462 78.5101194 3.15302885 73.4083988 3.15302885"></polyline><polyline id="Fill-9" points="84.1609607 3.15302885 84.1609607 5.65889423 88.8671324 5.65889423 88.8671324 8.07894231 84.1609607 8.07894231 84.1609607 12.7983894 81.258754 12.7983894 81.258754 0.647163462 89.262176 0.647163462 89.262176 3.15302885 84.1609607 3.15302885"></polyline><polyline id="Fill-10" points="92.0103055 12.7983894 92.0103055 0.647163462 100.185486 0.647163462 100.185486 3.11870192 94.8438089 3.11870192 94.8438089 5.41810096 99.8934969 5.41810096 99.8934969 7.77 94.8438089 7.77 94.8438089 10.2930288 100.495155 10.2930288 100.495155 12.7983894 92.0103055 12.7983894"></polyline><polyline id="Fill-11" points="103.294812 12.7983894 103.294812 0.647163462 111.469992 0.647163462 111.469992 3.11870192 106.128316 3.11870192 106.128316 5.41810096 111.178004 5.41810096 111.178004 7.77 106.128316 7.77 106.128316 10.2930288 111.779662 10.2930288 111.779662 12.7983894 103.294812 12.7983894"></polyline><path d="M126.962572,8.98860577 C126.962572,8.4853125 126.773638,8.13598558 126.396276,7.94112981 C126.018408,7.74728365 125.514248,7.64935096 124.884805,7.64935096 L123.252598,7.64935096 L123.252598,10.4303365 L124.90198,10.4303365 C125.130823,10.4303365 125.368253,10.4101442 125.614271,10.3702644 C125.860795,10.3303846 126.08408,10.2581971 126.284128,10.1557212 C126.484681,10.0527404 126.647851,9.90685096 126.773638,9.71805288 C126.899931,9.52925481 126.962572,9.2859375 126.962572,8.98860577 L126.962572,8.98860577 Z M126.568034,4.16567308 C126.568034,3.75375 126.409915,3.45338942 126.095194,3.26459135 C125.780473,3.07579327 125.3142,2.98088942 124.695871,2.98088942 L123.252598,2.98088942 L123.252598,5.48725962 L124.832772,5.48725962 C125.382398,5.48725962 125.809267,5.37519231 126.112875,5.15257212 C126.415978,4.92944712 126.568034,4.6003125 126.568034,4.16567308 L126.568034,4.16567308 Z M129.900141,9.26322115 C129.900141,9.92704327 129.768291,10.484351 129.504592,10.9366587 C129.241398,11.3884615 128.892325,11.7514183 128.456868,12.0265385 C128.021916,12.3011538 127.526343,12.4985337 126.971665,12.6186779 C126.415978,12.7383173 125.846145,12.7983894 125.262672,12.7983894 L120.419094,12.7983894 L120.419094,0.647163462 L125.262672,0.647163462 C125.731976,0.647163462 126.212899,0.696129808 126.704935,0.792548077 C127.197477,0.890480769 127.644048,1.0565625 128.045154,1.29079327 C128.445754,1.52502404 128.772094,1.84254808 129.02367,2.24286058 C129.27575,2.64367788 129.401537,3.15302885 129.401537,3.77091346 C129.401537,4.44634615 129.218665,5.00365385 128.851911,5.44435096 C128.485663,5.88454327 128.00474,6.20206731 127.409649,6.39692308 L127.409649,6.43125 C127.753165,6.48829327 128.076474,6.59379808 128.380082,6.74877404 C128.683184,6.90324519 128.946884,7.10012019 129.169664,7.34091346 C129.393455,7.58120192 129.57077,7.86137019 129.702619,8.18192308 C129.833964,8.50247596 129.900141,8.86290865 129.900141,9.26322115 L129.900141,9.26322115 Z" id="Fill-12"></path><polyline id="Fill-13" points="132.699798 12.7983894 132.699798 0.647163462 140.874978 0.647163462 140.874978 3.11870192 135.533301 3.11870192 135.533301 5.41810096 140.582989 5.41810096 140.582989 7.77 135.533301 7.77 135.533301 10.2930288 141.184648 10.2930288 141.184648 12.7983894 132.699798 12.7983894"></polyline><path d="M149.3083,3.89105769 L147.762478,8.06177885 L150.819772,8.06177885 L149.3083,3.89105769 L149.3083,3.89105769 Z M152.571704,12.7983894 L151.626529,10.4131731 L146.920863,10.4131731 L146.027216,12.7983894 L142.83302,12.7983894 L147.934236,0.647163462 L150.784915,0.647163462 L155.834603,12.7983894 L152.571704,12.7983894 L152.571704,12.7983894 Z"></path><polyline id="Fill-15" points="165.43588 12.7983894 160.540775 4.85170673 160.489247 4.85170673 160.55795 12.7983894 157.707271 12.7983894 157.707271 0.647163462 161.056049 0.647163462 165.933979 8.57668269 165.985506 8.57668269 165.917308 0.647163462 168.767987 0.647163462 168.767987 12.7983894 165.43588 12.7983894"></polyline><path d="M180.110083,2.4675 C180.110083,2.25850962 180.040875,2.0803125 179.900943,1.93341346 C179.762021,1.78651442 179.572076,1.7128125 179.331615,1.7128125 C179.107319,1.7128125 178.919396,1.78449519 178.76835,1.92735577 C178.617304,2.07122596 178.542033,2.2509375 178.542033,2.4675 C178.542033,2.66084135 178.594066,2.84711538 178.698636,3.02480769 C178.803206,3.20300481 178.956273,3.373125 179.157331,3.53567308 C179.42103,3.42713942 179.645326,3.28427885 179.831229,3.10557692 C180.017637,2.92788462 180.110083,2.71536058 180.110083,2.4675 L180.110083,2.4675 Z M178.646603,5.28887019 C178.414225,5.38175481 178.210641,5.51149038 178.036357,5.67757212 C177.862073,5.84415865 177.774679,6.08242788 177.774679,6.391875 C177.774679,6.55391827 177.80802,6.69930288 177.873692,6.82701923 C177.939364,6.95473558 178.024738,7.06326923 178.129308,7.15211538 C178.233879,7.24146635 178.352089,7.30860577 178.483433,7.35504808 C178.615283,7.40199519 178.751174,7.42521635 178.890096,7.42521635 C179.146217,7.42521635 179.374049,7.37120192 179.576118,7.26266827 C179.777176,7.15413462 179.95146,6.99915865 180.09897,6.79824519 L178.646603,5.28887019 L178.646603,5.28887019 Z M182.003969,8.75992788 L181.225501,7.95930288 C180.962307,8.23745192 180.638997,8.46814904 180.255573,8.65038462 C179.872653,8.83161058 179.393751,8.92298077 178.820382,8.92298077 C178.448576,8.92298077 178.084348,8.87451923 177.728203,8.77810096 C177.372057,8.68067308 177.056326,8.52973558 176.781513,8.32478365 C176.506194,8.11983173 176.28594,7.86439904 176.119234,7.55899038 C175.952527,7.25307692 175.869679,6.890625 175.869679,6.47314904 C175.869679,6.18692308 175.91565,5.92341346 176.008601,5.68362981 C176.102058,5.44334135 176.227845,5.2303125 176.386469,5.04504808 C176.545598,4.85927885 176.72948,4.69673077 176.938621,4.55689904 C177.147761,4.41807692 177.36448,4.2984375 177.589281,4.19697115 C177.333159,3.94961538 177.12806,3.67903846 176.972972,3.38473558 C176.81839,3.09043269 176.740594,2.76584135 176.740594,2.40894231 C176.740594,2.03790865 176.81839,1.72038462 176.972972,1.45737981 C177.12806,1.19387019 177.327602,0.9778125 177.5716,0.8071875 C177.815597,0.637067308 178.09041,0.513389423 178.396544,0.435144231 C178.702172,0.358413462 179.00679,0.319543269 179.308377,0.319543269 C179.618552,0.319543269 179.924181,0.359927885 180.226778,0.441201923 C180.528365,0.522475962 180.798126,0.648173077 181.034041,0.818798077 C181.269956,0.988918269 181.4599,1.20598558 181.603368,1.46899038 C181.746332,1.7325 181.818066,2.04548077 181.818066,2.40894231 C181.818066,2.67245192 181.775632,2.91072115 181.690258,3.12324519 C181.604884,3.33627404 181.487179,3.52961538 181.336133,3.70377404 C181.185087,3.8784375 181.009288,4.03492788 180.807219,4.17425481 C180.606161,4.31358173 180.392979,4.44129808 180.168178,4.55689904 L181.202263,5.61396635 L182.027207,4.34790865 L184.142357,4.34790865 L182.364156,6.72858173 L184.409593,8.75992788 L182.003969,8.75992788 L182.003969,8.75992788 Z" id="Fill-16"></path><polyline id="Fill-17" points="196.089143 3.15302885 196.089143 12.7983894 193.15208 12.7983894 193.15208 3.15302885 189.716918 3.15302885 189.716918 0.647163462 199.524305 0.647163462 199.524305 3.15302885 196.089143 3.15302885"></polyline><polyline id="Fill-18" points="201.722808 12.7983894 201.722808 0.647163462 209.898494 0.647163462 209.898494 3.11870192 204.556817 3.11870192 204.556817 5.41810096 209.606505 5.41810096 209.606505 7.77 204.556817 7.77 204.556817 10.2930288 210.207658 10.2930288 210.207658 12.7983894 201.722808 12.7983894"></polyline><path d="M218.331311,3.89105769 L216.785993,8.06177885 L219.843287,8.06177885 L218.331311,3.89105769 L218.331311,3.89105769 Z M221.594715,12.7983894 L220.650045,10.4131731 L215.944379,10.4131731 L215.050731,12.7983894 L211.856536,12.7983894 L216.957751,0.647163462 L219.808431,0.647163462 L224.858118,12.7983894 L221.594715,12.7983894 L221.594715,12.7983894 Z" id="Fill-19"></path><polyline id="Fill-20" points="232.261397 12.7983894 232.261397 0.647163462 235.215132 0.647163462 235.215132 10.2415385 239.921808 10.2415385 239.921808 12.7983894 232.261397 12.7983894"></polyline><polyline id="Fill-21" points="242.497675 12.7983894 242.497675 0.647163462 250.67336 0.647163462 250.67336 3.11870192 245.331683 3.11870192 245.331683 5.41810096 250.381371 5.41810096 250.381371 7.77 245.331683 7.77 245.331683 10.2930288 250.982525 10.2930288 250.982525 12.7983894 242.497675 12.7983894"></polyline><path d="M259.106177,3.89105769 L257.560859,8.06177885 L260.617648,8.06177885 L259.106177,3.89105769 L259.106177,3.89105769 Z M262.369581,12.7983894 L261.424911,10.4131731 L256.719245,10.4131731 L255.825598,12.7983894 L252.631402,12.7983894 L257.732112,0.647163462 L260.583297,0.647163462 L265.632985,12.7983894 L262.369581,12.7983894 L262.369581,12.7983894 Z" id="Fill-22"></path><polyline id="Fill-23" points="270.40786 3.15302885 270.40786 5.65889423 275.114537 5.65889423 275.114537 8.07894231 270.40786 8.07894231 270.40786 12.7983894 267.505653 12.7983894 267.505653 0.647163462 275.50958 0.647163462 275.50958 3.15302885 270.40786 3.15302885"></polyline><polygon id="Fill-24" points="174.302639 12.7802163 186.090296 12.7802163 186.090296 11.2657933 174.302639 11.2657933"></polygon><polyline id="Fill-25" points="276.967503 0.646658654 278.469882 0.646658654 278.469882 0.926826923 277.879842 0.926826923 277.879842 2.50081731 277.555017 2.50081731 277.555017 0.926826923 276.967503 0.926826923 276.967503 0.646658654"></polyline><polyline id="Fill-26" points="278.680538 0.646658654 279.137717 0.646658654 279.649455 2.09848558 279.655012 2.09848558 280.153616 0.646658654 280.605744 0.646658654 280.605744 2.50081731 280.296579 2.50081731 280.296579 1.0696875 280.291528 1.0696875 279.776759 2.50081731 279.509523 2.50081731 278.994754 1.0696875 278.989702 1.0696875 278.989702 2.50081731 278.680538 2.50081731 278.680538 0.646658654"></polyline></g></g></g></g></g></g></svg>